<?xml version="1.0" encoding="utf-8"?>
<!-- Generator: Adobe Illustrator 18.0.0, SVG Export Plug-In . SVG Version: 6.00 Build 0)  -->
<!DOCTYPE svg PUBLIC "-//W3C//DTD SVG 1.1//EN" "http://www.w3.org/Graphics/SVG/1.1/DTD/svg11.dtd">
<svg version="1.1" id="Layer_1" xmlns="http://www.w3.org/2000/svg" xmlns:xlink="http://www.w3.org/1999/xlink" x="0px" y="0px"
	 viewBox="0 0 364.6 237.8" enable-background="new 0 0 364.6 237.8" xml:space="preserve">
<rect x="12" y="8.8" fill="#FFFFFF" stroke="#000000" stroke-width="4" stroke-miterlimit="10" width="340.6" height="220"/>
<line fill="none" stroke="#000000" stroke-width="2" stroke-miterlimit="10" x1="182.3" y1="7.8" x2="182.3" y2="229.8"/>
<g>
	<rect x="20.8" y="33" fill="none" width="153" height="171.2"/>
	<path d="M91.6,86.1H79.2l1.6-6.2l12.2-1.6l2.7-14.5c1-5.3,2.6-9.9,5-13.9c2.4-4,5.2-7.3,8.6-9.9c3.3-2.6,7-4.6,11.1-5.9
		c4-1.3,8.2-2,12.4-2c2.3,0,4.6,0.3,6.8,1c2.2,0.6,4.2,1.5,5.9,2.6c1.7,1.1,3,2.5,4.1,4.2c1,1.7,1.5,3.6,1.5,5.6
		c0,2.4-0.4,4.6-1.3,6.4c-0.8,1.8-1.9,3.3-3.2,4.5c-1.3,1.2-2.7,2-4.3,2.6c-1.6,0.6-3.1,0.9-4.6,0.9l-1-1c0.3-1.4,0.5-3.1,0.5-5.1
		c0-2.9-0.4-5.7-1.2-8.6c-0.8-2.9-2-4.9-3.7-6.2c-2.9,0-5.2,0.3-7.1,1c-1.9,0.7-3.4,1.7-4.6,3c-1.2,1.3-2.1,3-2.8,4.9
		c-0.6,2-1.2,4.2-1.6,6.6L112,78.3h21l-2.1,6.5l-1.6,1.3h-18.8l-15.7,86.7c-1,5.3-2.6,9.9-5,13.9c-2.4,4-5.2,7.3-8.5,9.9
		c-3.3,2.6-6.9,4.6-10.8,5.9c-3.9,1.3-7.9,2-11.9,2c-2.4,0-4.7-0.3-6.9-1c-2.2-0.6-4.1-1.5-5.8-2.6c-1.7-1.1-3-2.5-4.1-4.1
		c-1-1.6-1.5-3.5-1.5-5.6c0-2.1,0.4-4,1.3-5.6c0.8-1.6,1.9-2.9,3.2-4c1.3-1.1,2.7-1.9,4.3-2.4c1.6-0.5,3.1-0.8,4.6-0.8l1,1
		c-1,1.6-1.4,3.5-1.4,5.7c0,2.6,0.6,5.2,1.7,7.7c1.1,2.5,2.5,4.1,4.2,4.8c2.5,0,4.7-0.3,6.4-1c1.7-0.7,3.2-1.7,4.4-3.1
		c1.2-1.4,2.1-3,2.8-4.9c0.7-1.9,1.2-4.1,1.7-6.5L91.6,86.1z"/>
</g>
<g>
	<rect x="190.3" y="17.7" fill="none" width="153" height="202"/>
	<path d="M261.4,33.6c17.2,0,31.6,2.1,43.2,12.1c12.6,10.8,15.7,26,15.7,36.8c0,24.2-15.2,48.1-54.2,48.1h-16.7V205h-19V33.6H261.4z
		 M249.4,112.5H265c22.6,0,36.2-11.3,36.2-31.1c0-27.2-25.4-29.8-37.8-29.8h-14.1V112.5z"/>
</g>
<g>
</g>
<g>
</g>
<g>
</g>
<g>
</g>
<g>
</g>
<g>
</g>
<g>
</g>
<g>
</g>
<g>
</g>
<g>
</g>
<g>
</g>
<g>
</g>
<g>
</g>
<g>
</g>
<g>
</g>
</svg>
